<?xml version="1.0" encoding="UTF-8"?>
<svg width="24px" height="24px" viewBox="0 0 24 24" version="1.1" xmlns="http://www.w3.org/2000/svg" xmlns:xlink="http://www.w3.org/1999/xlink">
    <!-- Generator: sketchtool 47.1 (45422) - http://www.bohemiancoding.com/sketch -->
    <title>3DDEC426-A96E-4BB1-B1BB-59AA1985135D</title>
    <desc>Created with sketchtool.</desc>
    <defs></defs>
    <g id="Symbols" stroke="none" stroke-width="1" fill="none" fill-rule="evenodd">
        <g id="ic_topic_09">
            <rect id="Rectangle" x="0" y="0" width="24" height="24"></rect>
            <g id="Page-1" transform="translate(2.000000, 2.000000)" stroke="#FFD25C" stroke-width="1.5" stroke-linecap="round" stroke-linejoin="round">
                <path d="M19.5833333,10 C19.5833333,15.2933333 15.2925,19.5833333 10,19.5833333 C4.7075,19.5833333 0.416666667,15.2933333 0.416666667,10 C0.416666667,4.70666667 4.7075,0.416666667 10,0.416666667 C15.2925,0.416666667 19.5833333,4.70666667 19.5833333,10 Z" id="Stroke-1"></path>
                <path d="M10,12.5293333 C9.51333333,12.5293333 9.115,12.1301667 9.115,11.6443333 L8.115,4.24766667 C8.115,3.76183333 9.51333333,3.36266667 10,3.36266667 C10.4866667,3.36266667 11.885,3.76183333 11.885,4.24766667 L10.885,11.6443333 C10.885,12.1301667 10.4866667,12.5293333 10,12.5293333 Z" id="Stroke-3"></path>
                <path d="M11.5275,15.7576667 C11.5275,16.601 10.8441667,17.2851667 10,17.2851667 C9.15583333,17.2851667 8.4725,16.601 8.4725,15.7576667 C8.4725,14.9135 9.15583333,14.2293333 10,14.2293333 C10.8441667,14.2293333 11.5275,14.9135 11.5275,15.7576667 Z" id="Stroke-5"></path>
            </g>
        </g>
    </g>
</svg>