<?xml version="1.0" encoding="UTF-8"?>
<svg width="24px" height="24px" viewBox="0 0 24 24" version="1.1" xmlns="http://www.w3.org/2000/svg" xmlns:xlink="http://www.w3.org/1999/xlink">
    <!-- Generator: sketchtool 47.1 (45422) - http://www.bohemiancoding.com/sketch -->
    <title>2C3D13B8-1825-477D-A7BF-16002F40820A</title>
    <desc>Created with sketchtool.</desc>
    <defs></defs>
    <g id="Symbols" stroke="none" stroke-width="1" fill="none" fill-rule="evenodd">
        <g id="ic_topic_03">
            <rect id="Rectangle" x="0" y="0" width="24" height="24"></rect>
            <g id="Page-1" transform="translate(2.000000, 2.000000)" stroke-width="1.5" stroke-linecap="round" stroke-linejoin="round">
                <path d="M14.8493874,7 L16.6759327,7 L18.8295538,7 C19.4732992,7 20,7.61578947 20,8.36842105 L20,18.6315789 C20,19.3842105 19.4732992,20 18.8295538,20 L5.17044623,20 C4.5267008,20 4,19.3842105 4,18.6315789 L4,16.2294891" id="Stroke-1" stroke="#FFF1B8"></path>
                <polygon id="Stroke-3" stroke="#FFD25C" points="6.5 0 8.50826011 4.27968216 13 4.96553636 9.75 8.29631341 10.5176626 13 6.5 10.7802827 2.48233743 13 3.25 8.29631341 0 4.96553636 4.49059754 4.27968216"></polygon>
                <path d="M8,15.75 L16.5618339,15.75" id="Stroke-5" stroke="#FFF1B8"></path>
                <path d="M13,11 L16.5355339,11" id="Stroke-9" stroke="#FFF1B8"></path>
            </g>
        </g>
    </g>
</svg>