<?xml version="1.0" encoding="UTF-8"?>
<svg width="24px" height="24px" viewBox="0 0 24 24" version="1.1" xmlns="http://www.w3.org/2000/svg" xmlns:xlink="http://www.w3.org/1999/xlink">
    <!-- Generator: sketchtool 47.1 (45422) - http://www.bohemiancoding.com/sketch -->
    <title>5EF9628F-F702-42D7-AF19-D58B783AA444</title>
    <desc>Created with sketchtool.</desc>
    <defs></defs>
    <g id="Symbols" stroke="none" stroke-width="1" fill="none" fill-rule="evenodd">
        <g id="ic_topic_04">
            <rect id="Rectangle" x="0" y="0" width="24" height="24"></rect>
            <g id="Page-1" transform="translate(2.000000, 3.000000)" stroke-width="1.5" stroke-linecap="round" stroke-linejoin="round">
                <path d="M6.6441,15.4047 L4.6871,18.0917 L4.6761,15.4137 C2.3911,15.4237 0.5141,13.5617 0.5041,11.2777 L0.4991,10.1577 C0.4901,7.8737 2.3511,5.9967 4.6351,5.9867 L9.8611,5.9647 C12.1451,5.9547 14.0221,7.8157 14.0321,10.0997 L14.0371,11.2197 C14.0461,13.5047 12.1851,15.3817 9.9011,15.3907 L6.6441,15.4047 Z" id="Stroke-1" stroke="#FFD25C"></path>
                <path d="M6.2262,3.2445 L12.3302,3.2445 C14.5312,3.2445 17.0632,5.8995 17.0632,8.3505 L17.0632,10.8025" id="Stroke-3" stroke="#FFF1B8"></path>
                <path d="M10.4937,0.5004 L14.1777,0.5004 C16.7607,0.5004 19.7327,3.6174 19.7327,6.4934 L19.7327,7.9514" id="Stroke-5" stroke="#FFF1B8"></path>
            </g>
        </g>
    </g>
</svg>