<?xml version="1.0" encoding="UTF-8"?>
<svg width="24px" height="24px" viewBox="0 0 24 24" version="1.1" xmlns="http://www.w3.org/2000/svg" xmlns:xlink="http://www.w3.org/1999/xlink">
    <!-- Generator: sketchtool 47.1 (45422) - http://www.bohemiancoding.com/sketch -->
    <title>1441CB8E-953A-482D-BE3C-1871E9196639</title>
    <desc>Created with sketchtool.</desc>
    <defs></defs>
    <g id="Symbols" stroke="none" stroke-width="1" fill="none" fill-rule="evenodd">
        <g id="ic_topic_08">
            <rect id="Rectangle" x="0" y="0" width="24" height="24"></rect>
            <g id="Page-1" transform="translate(1.000000, 5.000000)" stroke-width="1.5">
                <path d="M13.271808,4.430125 C13.271808,5.684875 12.248368,6.7025 10.986448,6.7025 C9.724528,6.7025 8.701968,5.684875 8.701968,4.430125 C8.701968,3.1745 9.724528,2.15775 10.986448,2.15775 C12.248368,2.15775 13.271808,3.1745 13.271808,4.430125 Z" id="Stroke-1" stroke="#FFD25C"></path>
                <path d="M14.080088,14.267275 L5.541448,14.267275 C5.541448,11.32465 7.940328,8.938525 10.899768,8.938525 C13.859208,8.938525 16.258968,11.32465 16.258968,14.267275" id="Stroke-3" stroke="#FFD25C" stroke-linecap="round" stroke-linejoin="round"></path>
                <path d="M7.167688,2.50495 C7.167688,3.59695 6.277128,4.48245 5.178888,4.48245 C4.080648,4.48245 3.190088,3.59695 3.190088,2.50495 C3.190088,1.41295 4.080648,0.52745 5.178888,0.52745 C6.277128,0.52745 7.167688,1.41295 7.167688,2.50495 Z" id="Stroke-5" stroke="#FFF1B8"></path>
                <path d="M4.307688,11.195325 L0.440088,11.195325 C0.440088,8.6342 2.528328,6.5587 5.103208,6.5587 C5.846808,6.5587 6.549928,6.731075 7.172968,7.039075" id="Stroke-7" stroke="#FFF1B8" stroke-linecap="round" stroke-linejoin="round"></path>
                <path d="M18.79504,2.357075 C18.79504,3.417575 17.93088,4.276825 16.86432,4.276825 C15.79776,4.276825 14.93272,3.417575 14.93272,2.357075 C14.93272,1.29745 15.79776,0.437325 16.86432,0.437325 C17.93088,0.437325 18.79504,1.29745 18.79504,2.357075 Z" id="Stroke-9" stroke="#FFF1B8"></path>
                <path d="M14.63176,6.866525 C15.27328,6.520025 16.00808,6.32315 16.7904,6.32315 C19.29136,6.32315 21.31888,8.33915 21.31888,10.825025" id="Stroke-11" stroke="#FFF1B8" stroke-linecap="round" stroke-linejoin="round"></path>
                <path d="M19.477832,10.825375 L17.479352,10.825375" id="Stroke-13" stroke="#FFF1B8" stroke-linecap="round" stroke-linejoin="round"></path>
            </g>
        </g>
    </g>
</svg>